<?xml version="1.0" encoding="utf-8"?>
<!-- Generator: Adobe Illustrator 14.0.0, SVG Export Plug-In . SVG Version: 6.00 Build 43363)  -->
<!DOCTYPE svg PUBLIC "-//W3C//DTD SVG 1.1//EN" "http://www.w3.org/Graphics/SVG/1.1/DTD/svg11.dtd">
<svg version="1.1" id="Layer_1" xmlns="http://www.w3.org/2000/svg" xmlns:xlink="http://www.w3.org/1999/xlink" x="0px" y="0px"
	 width="929px" height="2809px" viewBox="0 0 929 2809" enable-background="new 0 0 929 2809" xml:space="preserve">
<path fill="#D1D3D4" d="M407.469,1008.573c0,4.357-3.545,7.902-7.902,7.902H55.371c-4.357,0-7.902-3.545-7.902-7.902V664.377
	c0-4.357,3.545-7.902,7.902-7.902h344.196c4.357,0,7.902,3.544,7.902,7.902V1008.573z M90.967,566.032
	c0-15.313,10.018-29.899,28.21-41.071c18.982-11.658,44.327-18.078,71.367-18.078c27.039,0,52.386,6.42,71.367,18.078
	c18.191,11.172,28.211,25.758,28.211,41.071c0,15.313-10.02,29.898-28.211,41.071c-18.981,11.658-44.328,18.078-71.367,18.078
	c-27.04,0-52.385-6.42-71.367-18.078C100.985,595.93,90.967,581.344,90.967,566.032z"/>
</svg>
